<svg xmlns="http://www.w3.org/2000/svg" viewBox="0 0 512 512" width="512" height="512">
  <defs>
    <linearGradient id="bg" x1="0%" y1="0%" x2="100%" y2="100%">
      <stop offset="0%" style="stop-color:#2D6A4F"/>
      <stop offset="100%" style="stop-color:#1B4332"/>
    </linearGradient>
    <linearGradient id="leaf" x1="0%" y1="0%" x2="100%" y2="100%">
      <stop offset="0%" style="stop-color:#95D5B2"/>
      <stop offset="100%" style="stop-color:#52B788"/>
    </linearGradient>
  </defs>
  <!-- Background circle -->
  <circle cx="256" cy="256" r="248" fill="url(#bg)"/>
  <circle cx="256" cy="256" r="244" fill="none" stroke="#40916C" stroke-width="2"/>
  <!-- Leaf shape -->
  <path d="M256 140 Q310 180 300 260 Q290 340 256 380 Q222 340 212 260 Q202 180 256 140Z" fill="url(#leaf)" stroke="#74C69D" stroke-width="3"/>
  <!-- Leaf vein -->
  <path d="M256 140 L256 370" fill="none" stroke="#2D6A4F" stroke-width="2.5" opacity="0.5"/>
  <path d="M256 200 Q280 220 285 250" fill="none" stroke="#2D6A4F" stroke-width="2" opacity="0.4"/>
  <path d="M256 200 Q232 220 227 250" fill="none" stroke="#2D6A4F" stroke-width="2" opacity="0.4"/>
  <path d="M256 260 Q275 275 278 300" fill="none" stroke="#2D6A4F" stroke-width="2" opacity="0.4"/>
  <path d="M256 260 Q237 275 234 300" fill="none" stroke="#2D6A4F" stroke-width="2" opacity="0.4"/>
  <!-- Small circle accents -->
  <circle cx="200" cy="180" r="6" fill="#52B788" opacity="0.6"/>
  <circle cx="312" cy="180" r="6" fill="#52B788" opacity="0.6"/>
  <circle cx="190" cy="300" r="5" fill="#52B788" opacity="0.5"/>
  <circle cx="322" cy="300" r="5" fill="#52B788" opacity="0.5"/>
  <!-- Text -->
  <text x="256" y="445" font-family="Arial, Helvetica, sans-serif" font-size="48" font-weight="bold" fill="#D8F3DC" text-anchor="middle" letter-spacing="8">BOER</text>
</svg>
